<?xml version="1.0" encoding="UTF-8" standalone="no"?>
<svg
   width="484.60699"
   height="484.60699"
   viewBox="0 0 484.60697 484.60699"
   version="1.1"
   id="svg10"
   sodipodi:docname="dog.svg"
   inkscape:version="1.3.2 (091e20ef0f, 2023-11-25)"
   xmlns:inkscape="http://www.inkscape.org/namespaces/inkscape"
   xmlns:sodipodi="http://sodipodi.sourceforge.net/DTD/sodipodi-0.dtd"
   xmlns="http://www.w3.org/2000/svg"
   xmlns:svg="http://www.w3.org/2000/svg">
  <defs
     id="defs10" />
  <sodipodi:namedview
     id="namedview10"
     pagecolor="#ffffff"
     bordercolor="#000000"
     borderopacity="0.25"
     inkscape:showpageshadow="2"
     inkscape:pageopacity="0.0"
     inkscape:pagecheckerboard="0"
     inkscape:deskcolor="#d1d1d1"
     inkscape:zoom="1.0877341"
     inkscape:cx="248.22243"
     inkscape:cy="318.55212"
     inkscape:window-width="1920"
     inkscape:window-height="975"
     inkscape:window-x="0"
     inkscape:window-y="0"
     inkscape:window-maximized="1"
     inkscape:current-layer="svg10" />
  <g
     id="g10"
     transform="matrix(0.84048531,0,0,0.84048531,-198.21048,39.067926)">
    <path
       d="m 406,438.53481 c 5,24 33.5,-5.5 33.5,-5.5 l 34,-4 c 0,0 21.5,0.5 35.5,11.5 14,11 23.5,-3.5 23.5,-3.5 15.77283,5.2576 35.09692,5.23627 51.83264,3.55252 24.11597,-2.42627 43.44604,-21.04041 46.76044,-45.05038 18.69678,-135.44147 -84.09314,-202.00211 -84.09314,-202.00211 l -30,-81 c 0,0 9.5,-23.5 12.5,-44.5 3,-21 -19,-41 -46,-61 -11.8125,-8.75 -25.34766,-8.12109 -36.83716,-4.64502 -12.88892,3.89946 -24.13214,11.9183 -32.4397,22.51616 -6.88251,8.77995 -18.68735,21.21468 -31.66315,23.36885 -4.48999,0.73999 -8.91998,2.52002 -13.06,5.76001 -4.28003,3.34998 -6.16998,8.94 -6.22998,15.89001 -0.32001,30.35999 24.75,66.90998 46.72998,72.60999 27,7 12.5,73.5 12.5,73.5 -44,62 -13,131 -13,131 l -8,56 c 0,0 -0.5,11.5 4.5,35.5 l 6e-5,-3e-5 z"
       fill="#3f3d56"
       id="path2"
       style="fill:#eff6ff;fill-opacity:1;stroke:#1e3a8a;stroke-opacity:1" />
    <path
       d="m 553,309.53481 -11,137 c 0,0 15,38 -36,36 -51,-2 -21,-80 -21,-80 l 16,-102"
       fill="#3f3d56"
       id="path3"
       style="fill:#eff6ff;fill-opacity:1;stroke:#1e3a8a;stroke-opacity:1" />
    <path
       d="m 509.79492,483.61099 c -1.24707,0 -2.52344,-0.0254 -3.83398,-0.0772 -11.29004,-0.44238 -19.60352,-4.60059 -24.71094,-12.3584 -14.60254,-22.18164 1.63867,-65.90625 2.77832,-68.89941 l 15.9834,-101.89648 c 0.0859,-0.5459 0.59375,-0.91309 1.14355,-0.83301 0.54492,0.0859 0.91797,0.59766 0.83301,1.14355 l -16,102 c -0.0117,0.0693 -0.0293,0.1377 -0.0547,0.2041 -0.1748,0.45215 -17.25195,45.55566 -3.01172,67.18359 4.73242,7.18652 12.50977,11.04199 23.11719,11.45801 16.65234,0.64941 27.85254,-2.90332 33.29785,-10.56836 7.12402,-10.02832 1.78711,-23.92676 1.73242,-24.06641 -0.0557,-0.1416 -0.0781,-0.29492 -0.0664,-0.44629 l 11,-137 c 0.0439,-0.5498 0.5166,-0.95117 1.07715,-0.91699 0.55078,0.0449 0.96094,0.52637 0.91699,1.07715 l -10.98242,136.77539 c 0.72656,1.96094 5.28223,15.4043 -2.03906,25.72363 -5.41699,7.63574 -15.89844,11.49707 -31.18066,11.49707 z"
       fill="#2f2e41"
       id="path4"
       style="fill:#eff6ff;fill-opacity:1;stroke:#1e3a8a;stroke-opacity:1" />
    <path
       d="m 462,337.53481 c 0,0 3,127 -60,124 -63,-3 -6,-43 -6,-43 l 5.5,-15.5"
       fill="#3f3d56"
       id="path5"
       style="fill:#eff6ff;fill-opacity:1;stroke:#1e3a8a;stroke-opacity:1" />
    <path
       d="m 404.16211,462.58657 c -0.73145,0 -1.4668,-0.0176 -2.20996,-0.0527 -17.98828,-0.85645 -28.15186,-4.88672 -30.20801,-11.97852 -3.7041,-12.7793 20.43945,-30.52148 23.41895,-32.65332 l 5.39453,-15.20117 c 0.18457,-0.52148 0.75586,-0.79297 1.27637,-0.6084 0.52051,0.18457 0.79297,0.75586 0.6084,1.27637 l -5.5,15.5 c -0.0693,0.19629 -0.19824,0.36523 -0.36816,0.48438 -0.26367,0.18555 -26.37744,18.68457 -22.90869,30.64551 1.79248,6.18066 11.34131,9.72559 28.38232,10.53711 11.34863,0.5459 21.29688,-3.27051 29.55078,-11.3291 30.95215,-30.21582 29.4209,-110.83789 29.40137,-111.64844 -0.0127,-0.55176 0.42383,-1.00977 0.97656,-1.02344 0.52246,9.8e-4 1.00977,0.4248 1.02344,0.97656 0.0791,3.3457 1.57227,82.29785 -30.00293,113.125 -8.12793,7.93555 -17.82031,11.9502 -28.83496,11.9502 z"
       fill="#2f2e41"
       id="path6"
       style="fill:#eff6ff;fill-opacity:1;stroke:#1e3a8a;stroke-opacity:1" />
    <path
       d="M 363.27002,69.92484 C 370.45001,70.78483 381.69,70.74479 391,64.53483 c 9.96997,-6.65002 -0.38,-12.85004 -8.44,-16.26001 -4.48999,0.73999 -8.91998,2.52002 -13.06,5.76001 -4.28003,3.34998 -6.16998,8.94 -6.22998,15.89001 z"
       fill="#2f2e41"
       id="path7"
       style="fill:#172554;fill-opacity:1;stroke:#1e3a8a;stroke-opacity:1" />
    <path
       d="m 479.2984,51.94388 c 0,0 -17.44968,-44.81639 7.54245,-45.4435 24.99213,-0.62711 44.73257,38.20994 44.73257,38.20994 0,0 62.72797,114.34248 -23.21378,108.17637 -85.94171,-6.16615 -44.87375,-51.81067 -44.87375,-51.81067 0,0 19.60165,-24.09928 15.81253,-49.13211 h -3e-5 v -2e-5 0 c 0,0 0,-2e-5 0,-2e-5 z"
       fill="#2f2e41"
       id="path8"
       style="fill:#172554;fill-opacity:1;stroke:#1e3a8a;stroke-opacity:1" />
    <path
       d="m 575.03857,386.85064 c 11.06787,4.92365 22.63171,9.948 34.73578,9.46738 12.10407,-0.48062 24.84155,-8.27557 26.72772,-20.24146 0.97363,-6.17697 -0.95746,-12.80396 1.40759,-18.59268 3.18213,-7.78867 13.44672,-10.79233 21.42578,-8.12323 7.97906,2.6691 13.84076,9.55188 18.04358,16.84058 7.86328,13.63672 11.0141,31.53461 2.58307,44.82779 -7.30878,11.52368 -21.17084,16.73105 -34.06519,21.19748 -17.17535,5.94928 -36.35114,11.854 -52.99396,4.54617 -16.7381,-7.34964 -25.85565,-28.58435 -19.65753,-45.7821"
       fill="#3f3d56"
       id="path9"
       style="fill:#eff6ff;fill-opacity:1;stroke:#1e3a8a;stroke-opacity:1" />
    <path
       d="m 538.1142,170.92143 c 0,0 22,11 11,23 -11,12 -79,46 -104,41 -25,-5 -31,-20 -31,-24 0,-4 1.88583,-52.38661 9.88583,-50.38661 8,2 58.11417,47.38661 114.11417,10.38661 z"
       fill="#1e3a8a"
       id="path10"
       style="stroke:#1e3a8a;stroke-opacity:1" />
  </g>
</svg>
